{"accessors" : [{"bufferView" : 0, "byteOffset" : 0, "componentType" : 5123, "count" : 28905, "type" : "SCALAR", "max" : [23429], "min" : [0]}, {"bufferView" : 1, "byteOffset" : 0, "componentType" : 5126, "count" : 23430, "type" : "VEC3", "max" : [235.83575439453125, 952.5, 327.2627868652344], "min" : [-557.6995849609375, -952.5, -10.76369571685791], "name" : "POSITION"}], "asset" : {"generator" : "Aspose.3D 21.11", "version" : "2.0"}, "buffers" : [{"uri" : "buffer.bin", "byteLength" : 404680}], "bufferViews" : [{"buffer" : 0, "byteOffset" : 0, "byteLength" : 57812, "target" : 34963}, {"buffer" : 0, "byteOffset" : 57816, "byteLength" : 346860, "byteStride" : 12, "target" : 34962}], "meshes" : [{"primitives" : [{"attributes" : {"POSITION" : 1}, "indices" : 0, "mode" : 4}]}], "nodes" : [{"mesh" : 0, "name" : ""}], "scene" : 0, "scenes" : [{"nodes" : [0]}]}